<svg width="459" height="210" viewBox="0 0 459 210" fill="none" xmlns="http://www.w3.org/2000/svg">
<g clip-path="url(#clip0_217_6)">
<path d="M528.72 -193.72H-68.72V403.703H528.72V-193.72Z" stroke="#D0D0D0" stroke-width="0.5" stroke-miterlimit="10"/>
<path d="M-68.72 191.729H528.72" stroke="#D0D0D0" stroke-width="0.5" stroke-miterlimit="10"/>
<path d="M-68.72 172.462H528.72" stroke="#D0D0D0" stroke-width="0.5" stroke-miterlimit="10"/>
<path d="M-68.72 153.195H528.72" stroke="#D0D0D0" stroke-width="0.5" stroke-miterlimit="10"/>
<path d="M-68.72 133.872H528.72" stroke="#D0D0D0" stroke-width="0.5" stroke-miterlimit="10"/>
<path d="M-68.72 114.605H528.72" stroke="#D0D0D0" stroke-width="0.5" stroke-miterlimit="10"/>
<path d="M-68.72 95.3386H528.72" stroke="#D0D0D0" stroke-width="0.5" stroke-miterlimit="10"/>
<path d="M-68.72 76.0718H528.72" stroke="#D0D0D0" stroke-width="0.5" stroke-miterlimit="10"/>
<path d="M-68.72 56.8049H528.72" stroke="#D0D0D0" stroke-width="0.5" stroke-miterlimit="10"/>
<path d="M-68.72 37.5381H528.72" stroke="#D0D0D0" stroke-width="0.5" stroke-miterlimit="10"/>
<path d="M-68.72 18.2712H528.72" stroke="#D0D0D0" stroke-width="0.5" stroke-miterlimit="10"/>
<path d="M451.597 -193.72V403.72" stroke="#D0D0D0" stroke-width="0.5" stroke-miterlimit="10"/>
<path d="M432.33 -193.72V403.72" stroke="#D0D0D0" stroke-width="0.5" stroke-miterlimit="10"/>
<path d="M413.063 -193.72V403.72" stroke="#D0D0D0" stroke-width="0.5" stroke-miterlimit="10"/>
<path d="M393.796 -193.72V403.72" stroke="#D0D0D0" stroke-width="0.5" stroke-miterlimit="10"/>
<path d="M374.529 -193.72V403.72" stroke="#D0D0D0" stroke-width="0.5" stroke-miterlimit="10"/>
<path d="M355.262 -193.72V403.72" stroke="#D0D0D0" stroke-width="0.5" stroke-miterlimit="10"/>
<path d="M335.996 -193.72V403.72" stroke="#D0D0D0" stroke-width="0.5" stroke-miterlimit="10"/>
<path d="M316.729 -193.72V403.72" stroke="#D0D0D0" stroke-width="0.5" stroke-miterlimit="10"/>
<path d="M297.462 -193.72V403.72" stroke="#D0D0D0" stroke-width="0.5" stroke-miterlimit="10"/>
<path d="M278.195 -193.72V403.72" stroke="#D0D0D0" stroke-width="0.5" stroke-miterlimit="10"/>
<path d="M258.872 -193.72V403.72" stroke="#D0D0D0" stroke-width="0.5" stroke-miterlimit="10"/>
<path d="M239.605 -193.72V403.72" stroke="#D0D0D0" stroke-width="0.5" stroke-miterlimit="10"/>
<path d="M220.339 -193.72V403.72" stroke="#D0D0D0" stroke-width="0.5" stroke-miterlimit="10"/>
<path d="M201.072 -193.72V403.72" stroke="#D0D0D0" stroke-width="0.5" stroke-miterlimit="10"/>
<path d="M181.805 -193.72V403.72" stroke="#D0D0D0" stroke-width="0.5" stroke-miterlimit="10"/>
<path d="M162.538 -193.72V403.72" stroke="#D0D0D0" stroke-width="0.5" stroke-miterlimit="10"/>
<path d="M143.271 -193.72V403.72" stroke="#D0D0D0" stroke-width="0.5" stroke-miterlimit="10"/>
<path d="M124.004 -193.72V403.72" stroke="#D0D0D0" stroke-width="0.5" stroke-miterlimit="10"/>
<path d="M104.738 -193.72V403.72" stroke="#D0D0D0" stroke-width="0.5" stroke-miterlimit="10"/>
<path d="M85.4707 -193.72V403.72" stroke="#D0D0D0" stroke-width="0.5" stroke-miterlimit="10"/>
<path d="M66.2039 -193.72V403.72" stroke="#D0D0D0" stroke-width="0.5" stroke-miterlimit="10"/>
<path d="M46.937 -193.72V403.72" stroke="#D0D0D0" stroke-width="0.5" stroke-miterlimit="10"/>
<path d="M27.6143 -193.72V403.72" stroke="#D0D0D0" stroke-width="0.5" stroke-miterlimit="10"/>
<path d="M8.34741 -193.72V403.72" stroke="#D0D0D0" stroke-width="0.5" stroke-miterlimit="10"/>
</g>
<defs>
<clipPath id="clip0_217_6">
<path d="M0 0H459V210H7.99999C3.58171 210 0 206.418 0 202V0Z" fill="white"/>
</clipPath>
</defs>
</svg>
