<svg width="56" height="73" viewBox="0 0 56 73" fill="none" xmlns="http://www.w3.org/2000/svg">
<g clip-path="url(#clip0_42_2445)">
<path d="M49.3569 5.64194C47.5728 3.84896 45.4511 2.42723 43.1144 1.45886C40.7777 0.490486 38.2723 -0.0053317 35.743 4.72006e-05C33.2119 -0.00556924 30.7048 0.490097 28.3664 1.45844C26.0279 2.42678 23.9044 3.84863 22.1183 5.64194C21.3244 6.43986 20.6024 7.30622 19.9607 8.23096H7.46874C6.55457 8.22764 5.64887 8.40619 4.80436 8.75622C3.95984 9.10625 3.19339 9.62076 2.54961 10.2698C1.90153 10.9143 1.38765 11.6809 1.03769 12.5252C0.687727 13.3696 0.508635 14.2749 0.510761 15.1889V44.078C0.510019 47.7419 1.44751 51.345 3.2339 54.5439C5.02029 57.7427 7.59607 60.4309 10.7158 62.3522L27.7602 72.8377L44.7937 62.3522C47.9147 60.4314 50.4921 57.7437 52.2803 54.5449C54.0686 51.3461 55.0081 47.7427 55.0095 44.078V19.2666C55.0105 16.7369 54.5117 14.232 53.5416 11.8957C52.5715 9.55934 51.1494 7.43774 49.3569 5.65273M35.743 5.65273C39.299 5.64933 42.7147 7.03965 45.2576 9.52547C42.7512 10.4809 40.4729 11.9508 38.5693 13.8405C37.4865 14.9162 36.5375 16.1188 35.743 17.422C34.9484 16.1188 33.9994 14.9162 32.9166 13.8405C31.0163 11.9468 28.737 10.4763 26.2283 9.52547C28.7662 7.03077 32.1843 5.63563 35.743 5.64194M6.14187 15.1782C6.1418 15.0039 6.17606 14.8313 6.24269 14.6703C6.30933 14.5092 6.40703 14.3629 6.53022 14.2396C6.78236 13.9956 7.11792 13.8568 7.46874 13.8513H17.2531C16.7382 15.603 16.4766 17.4193 16.4764 19.2451V19.7197H6.14187V15.1782ZM16.4764 43.0748H13.6284V25.3832H16.4764V43.0748ZM6.14187 25.3832H9.00057V43.0748H6.14187V25.3832ZM11.3091 55.7718C9.21692 53.8569 7.67495 51.4173 6.84306 48.7059H15.7752C14.9476 51.4193 13.405 53.86 11.3091 55.7718ZM16.0556 59.008C19.9431 55.006 22.1178 49.6465 22.1183 44.0673V33.7975C24.0221 34.4909 25.7365 35.6216 27.1237 37.0985C29.2104 39.3698 30.4322 42.3023 30.5757 45.3833C30.6075 46.1034 30.5823 46.8248 30.5002 47.5409C30.1356 50.6329 28.6687 53.49 26.3686 55.5884C24.1238 57.6823 21.2138 58.9196 18.1484 59.0835C17.461 59.1156 16.7721 59.0939 16.088 59.0188M49.3677 44.078C49.3669 46.7823 48.6723 49.4412 47.3501 51.8002C46.028 54.1593 44.1227 56.1396 41.8164 57.5517L27.7925 66.1818L23.6932 63.6575C26.1265 62.814 28.3594 61.4772 30.2521 59.7308C33.518 56.724 35.603 52.6498 36.1313 48.242C36.2564 47.2042 36.2961 46.1579 36.25 45.1136C36.1324 42.8284 35.5987 40.5837 34.675 38.4901H35.7537C38.2828 38.4931 40.7875 37.9962 43.1238 37.028C45.4602 36.0597 47.5821 34.6392 49.3677 32.8482V44.078ZM45.3763 28.8999C44.1116 30.1656 42.6099 31.1696 40.9569 31.8545C39.3039 32.5394 37.5322 32.8917 35.743 32.8913C33.9535 32.8929 32.1815 32.5411 30.5283 31.8562C28.8752 31.1712 27.3736 30.1666 26.1097 28.8999C24.8417 27.6347 23.8364 26.1314 23.1514 24.4763C22.4664 22.8212 22.1153 21.0471 22.1183 19.2559C22.1184 17.5897 22.4218 15.9374 23.0136 14.3799C25.2521 15.007 27.2916 16.1995 28.936 17.8427C30.8474 19.75 32.1469 22.1837 32.6685 24.833H38.8282C39.3498 22.1837 40.6493 19.75 42.5607 17.8427C44.2058 16.2036 46.2397 15.0085 48.4723 14.3691C49.0719 15.9285 49.379 17.5851 49.3784 19.2559C49.3814 21.0471 49.0303 22.8212 48.3453 24.4763C47.6603 26.1314 46.655 27.6347 45.387 28.8999" fill="#021255"/>
<path d="M16.4758 25.3726H13.6279V43.0642H16.4758V25.3726Z" fill="#FDD422"/>
<path d="M9.00124 25.3726H6.15332V43.0642H9.00124V25.3726Z" fill="#FDD422"/>
<path d="M6.14209 15.1779C6.14202 15.0037 6.17628 14.8311 6.24291 14.6701C6.30954 14.509 6.40725 14.3627 6.53044 14.2394C6.78258 13.9954 7.11814 13.8566 7.46896 13.8511H17.2533C16.7384 15.6027 16.4769 17.4191 16.4766 19.2449V19.7195H6.14209V15.1779Z" fill="#FB553B"/>
<path d="M35.7431 5.63117C39.2992 5.62777 42.7149 7.01809 45.2578 9.50391C42.7495 10.4617 40.468 11.9312 38.5587 13.8189C37.485 14.9 36.5402 16.1018 35.7431 17.4004C34.9459 16.0991 33.9971 14.8969 32.9168 13.8189C31.0165 11.9252 28.7372 10.4547 26.2285 9.50391C28.7664 7.00921 32.1845 5.61407 35.7431 5.62038" fill="#FDD422"/>
<path d="M16.0557 59.0187C19.9431 55.0167 22.1178 49.6572 22.1183 44.0779V33.7974C24.0221 34.4908 25.7366 35.6215 27.1237 37.0984C29.2104 39.3697 30.4323 42.3022 30.5757 45.3832C30.6076 46.1032 30.5823 46.8247 30.5002 47.5407C30.1356 50.6328 28.6688 53.4899 26.3686 55.5883C24.1228 57.6806 21.2134 58.9177 18.1485 59.0834C17.461 59.1154 16.7721 59.0938 16.088 59.0187" fill="#29D197"/>
<path d="M49.3678 44.0782C49.367 46.7825 48.6724 49.4414 47.3502 51.8004C46.0281 54.1595 44.1228 56.1398 41.8165 57.5519L27.7926 66.182L23.6934 63.6577C26.1266 62.8142 28.3595 61.4774 30.2522 59.731C33.5182 56.7242 35.6031 52.65 36.1314 48.2422C36.2565 47.2045 36.2962 46.1581 36.2501 45.1139C36.1325 42.8286 35.5988 40.5839 34.6751 38.4903H35.7539C38.2829 38.4933 40.7876 37.9964 43.1239 37.0282C45.4603 36.0599 47.5822 34.6394 49.3678 32.8484V44.0782Z" fill="#8452FF"/>
<path d="M45.3757 28.8998C44.111 30.1654 42.6093 31.1694 40.9563 31.8543C39.3034 32.5392 37.5316 32.8915 35.7424 32.8912C33.953 32.8927 32.1809 32.5409 30.5278 31.856C28.8746 31.171 27.373 30.1664 26.1091 28.8998C24.8411 27.6345 23.8358 26.1312 23.1508 24.4761C22.4658 22.821 22.1147 21.0469 22.1177 19.2557C22.1179 17.5895 22.4213 15.9372 23.0131 14.3797C25.2516 15.0068 27.2911 16.1993 28.9354 17.8425C30.8468 19.7498 32.1463 22.1835 32.6679 24.8328H38.8276C39.3492 22.1835 40.6487 19.7498 42.5601 17.8425C44.2053 16.2034 46.2392 15.0083 48.4717 14.3689C49.0713 15.9283 49.3785 17.5849 49.3779 19.2557C49.3808 21.0469 49.0297 22.821 48.3448 24.4761C47.6598 26.1312 46.6544 27.6345 45.3865 28.8998" fill="white"/>
<path d="M11.3088 55.7719C9.21664 53.8571 7.67466 51.4175 6.84277 48.7061H15.7749C14.9474 51.4195 13.4047 53.8601 11.3088 55.7719Z" fill="white"/>
</g>
<defs>
<clipPath id="clip0_42_2445">
<rect width="54.4988" height="72.8376" fill="white" transform="translate(0.510742)"/>
</clipPath>
</defs>
</svg>
