<svg width="188" height="51" viewBox="0 0 188 51" fill="none" xmlns="http://www.w3.org/2000/svg">
<g clip-path="url(#clip0_42_2026)">
<path d="M32.5323 4.75759C31.344 3.56344 29.931 2.61654 28.3747 1.97159C26.8184 1.32664 25.1498 0.996418 23.4652 1C21.7795 0.99626 20.1097 1.32638 18.5523 1.97131C16.9948 2.61625 15.5805 3.56322 14.3909 4.75759C13.8622 5.28901 13.3814 5.86602 12.954 6.48192H4.63413C4.02528 6.4797 3.42207 6.59862 2.85961 6.83175C2.29715 7.06487 1.78669 7.40754 1.35792 7.83982C0.926285 8.26907 0.584032 8.77963 0.350953 9.34198C0.117875 9.90432 -0.00140335 10.5073 1.24576e-05 11.116V30.3566C-0.000481497 32.7968 0.623901 35.1965 1.81366 37.327C3.00343 39.4575 4.71893 41.2479 6.79672 42.5275L18.1485 49.511L29.4931 42.5275C31.5718 41.2482 33.2883 39.4581 34.4793 37.3277C35.6703 35.1972 36.2961 32.7974 36.297 30.3566V13.8318C36.2977 12.147 35.9655 10.4787 35.3194 8.92266C34.6733 7.36664 33.7261 5.95362 32.5323 4.76478M23.4652 4.76478C25.8336 4.76251 28.1085 5.68848 29.8021 7.34408C28.1328 7.9804 26.6154 8.95939 25.3476 10.218C24.6264 10.9344 23.9944 11.7353 23.4652 12.6033C22.936 11.7353 22.304 10.9344 21.5828 10.218C20.3172 8.9567 18.7991 7.97732 17.1283 7.34408C18.8186 5.68257 21.095 4.75339 23.4652 4.75759M3.75042 11.1089C3.75037 10.9928 3.77319 10.8778 3.81757 10.7706C3.86195 10.6633 3.92702 10.5659 4.00907 10.4838C4.177 10.3213 4.40048 10.2288 4.63413 10.2251H11.1506C10.8077 11.3918 10.6335 12.6015 10.6333 13.8175V14.1336H3.75042V11.1089ZM10.6333 29.6884H8.73659V17.9056H10.6333V29.6884ZM3.75042 17.9056H5.65436V29.6884H3.75042V17.9056ZM7.19188 38.1448C5.79845 36.8695 4.77147 35.2447 4.21742 33.4389H10.1663C9.61519 35.246 8.58777 36.8716 7.19188 38.1448ZM10.3531 40.3002C12.9422 37.6348 14.3906 34.0653 14.3909 30.3494V23.5096C15.6589 23.9715 16.8008 24.7245 17.7246 25.7081C19.1144 27.2209 19.9282 29.174 20.0237 31.226C20.0449 31.7055 20.0281 32.186 19.9734 32.6629C19.7306 34.7223 18.7537 36.6251 17.2217 38.0227C15.7267 39.4173 13.7886 40.2413 11.747 40.3505C11.2891 40.3718 10.8303 40.3574 10.3747 40.3074M32.5395 30.3566C32.539 32.1577 32.0763 33.9285 31.1957 35.4997C30.3152 37.0709 29.0462 38.3898 27.5102 39.3303L18.1701 45.078L15.4399 43.3968C17.0605 42.8351 18.5476 41.9447 19.8082 40.7816C21.9834 38.779 23.372 36.0655 23.7238 33.1299C23.8071 32.4387 23.8336 31.7419 23.8029 31.0464C23.7246 29.5243 23.3691 28.0293 22.7539 26.635H23.4724C25.1568 26.637 26.8249 26.306 28.381 25.6612C29.937 25.0163 31.3503 24.0702 32.5395 22.8774V30.3566ZM29.8811 20.2478C29.0388 21.0907 28.0387 21.7594 26.9378 22.2156C25.8369 22.6717 24.6568 22.9064 23.4652 22.9061C22.2734 22.9071 21.0932 22.6728 19.9922 22.2167C18.8912 21.7605 17.8911 21.0914 17.0493 20.2478C16.2048 19.4051 15.5352 18.4039 15.079 17.3015C14.6228 16.1992 14.389 15.0176 14.3909 13.8247C14.3911 12.715 14.5931 11.6145 14.9873 10.5772C16.4781 10.9948 17.8365 11.7891 18.9317 12.8835C20.2047 14.1537 21.0702 15.7746 21.4176 17.5391H25.52C25.8674 15.7746 26.7329 14.1537 28.0059 12.8835C29.1016 11.7918 30.4562 10.9958 31.9431 10.57C32.3425 11.6086 32.547 12.7119 32.5466 13.8247C32.5486 15.0176 32.3148 16.1992 31.8586 17.3015C31.4024 18.4039 30.7328 19.4051 29.8883 20.2478" fill="#021255"/>
<path d="M10.6333 17.8984H8.73657V29.6813H10.6333V17.8984Z" fill="#FDD422"/>
<path d="M5.65433 17.8984H3.75757V29.6813H5.65433V17.8984Z" fill="#FDD422"/>
<path d="M3.75049 11.1088C3.75044 10.9928 3.77326 10.8778 3.81764 10.7706C3.86202 10.6633 3.92709 10.5659 4.00914 10.4838C4.17707 10.3213 4.40055 10.2288 4.6342 10.2251H11.1507C10.8078 11.3918 10.6336 12.6015 10.6334 13.8175V14.1336H3.75049V11.1088Z" fill="#FB553B"/>
<path d="M23.4652 4.75043C25.8336 4.74816 28.1085 5.67413 29.8021 7.32973C28.1315 7.96763 26.612 8.94635 25.3404 10.2036C24.6253 10.9236 23.996 11.724 23.4652 12.5889C22.9342 11.7222 22.3023 10.9215 21.5828 10.2036C20.3172 8.94235 18.7991 7.96297 17.1283 7.32973C18.8186 5.66822 21.095 4.73904 23.4652 4.74324" fill="#FDD422"/>
<path d="M10.3531 40.3074C12.9422 37.642 14.3906 34.0725 14.3909 30.3566V23.5096C15.6589 23.9715 16.8008 24.7245 17.7246 25.7082C19.1144 27.2209 19.9282 29.174 20.0237 31.226C20.0449 31.7056 20.0281 32.186 19.9734 32.6629C19.7306 34.7223 18.7537 36.6252 17.2217 38.0227C15.726 39.4163 13.7883 40.2402 11.747 40.3505C11.2891 40.3719 10.8303 40.3575 10.3747 40.3074" fill="#29D197"/>
<path d="M32.5395 30.3566C32.539 32.1577 32.0763 33.9286 31.1958 35.4997C30.3152 37.0709 29.0462 38.3898 27.5102 39.3303L18.1701 45.0781L15.4399 43.3968C17.0605 42.8351 18.5477 41.9448 19.8082 40.7816C21.9834 38.779 23.372 36.0655 23.7239 33.1299C23.8072 32.4387 23.8336 31.7419 23.8029 31.0464C23.7246 29.5243 23.3691 28.0294 22.754 26.635H23.4724C25.1568 26.637 26.825 26.306 28.381 25.6612C29.9371 25.0163 31.3503 24.0703 32.5395 22.8774V30.3566Z" fill="#8452FF"/>
<path d="M29.8811 20.2478C29.0388 21.0908 28.0386 21.7594 26.9377 22.2156C25.8368 22.6717 24.6568 22.9064 23.4651 22.9061C22.2734 22.9071 21.0931 22.6728 19.9921 22.2167C18.8911 21.7605 17.891 21.0914 17.0492 20.2478C16.2047 19.4051 15.5352 18.4039 15.0789 17.3016C14.6227 16.1993 14.3889 15.0176 14.3909 13.8247C14.391 12.715 14.5931 11.6145 14.9872 10.5772C16.4781 10.9948 17.8364 11.7891 18.9316 12.8835C20.2046 14.1537 21.0701 15.7746 21.4175 17.5392H25.52C25.8674 15.7746 26.7328 14.1537 28.0059 12.8835C29.1015 11.7918 30.4562 10.9959 31.9431 10.57C32.3424 11.6086 32.547 12.7119 32.5466 13.8247C32.5486 15.0176 32.3147 16.1993 31.8585 17.3016C31.4023 18.4039 30.7327 19.4051 29.8882 20.2478" fill="white"/>
<path d="M7.19187 38.1448C5.79844 36.8695 4.77146 35.2447 4.21741 33.4388H10.1663C9.61518 35.246 8.58775 36.8715 7.19187 38.1448Z" fill="white"/>
</g>
<g clip-path="url(#clip1_42_2026)">
<path d="M46.3717 35.3205V16.7962H51.4574V35.3179L46.3717 35.3205Z" fill="#021456"/>
<path d="M64.9244 16.3625C67.0547 16.3625 68.749 17.0628 70.0075 18.4635C71.2659 19.8641 71.8952 21.7426 71.8952 24.0989V35.3205H66.8121V24.904C66.8121 22.1339 65.7188 20.7488 63.5323 20.7488C62.2282 20.7488 61.1991 21.1816 60.4451 22.0473C59.6911 22.913 59.314 24.0937 59.314 25.5896V35.3205H54.231V16.7962H57.7163L58.7024 19.0893C59.443 18.2308 60.3702 17.5473 61.4153 17.0896C62.5178 16.6 63.7151 16.3519 64.9244 16.3625Z" fill="#021456"/>
<path d="M81.1069 35.8399C78.7499 35.8399 76.8481 35.234 75.4016 34.022C73.9551 32.8101 73.2274 31.2104 73.2186 29.2228H78.1646C78.1525 29.5726 78.2257 29.9202 78.378 30.2365C78.5303 30.5528 78.7573 30.8285 79.0399 31.0407C79.7048 31.4932 80.5027 31.7169 81.3099 31.677C81.9761 31.6993 82.6347 31.5306 83.2055 31.1913C83.4482 31.0529 83.6484 30.8523 83.7848 30.6109C83.9213 30.3695 83.9889 30.0963 83.9806 29.8201C83.9838 29.5387 83.8909 29.2643 83.717 29.041C83.4961 28.7865 83.2117 28.5932 82.8917 28.4801C82.534 28.3327 82.1645 28.2146 81.7871 28.1269C81.4233 28.0438 80.9487 27.9503 80.3581 27.8516C79.8309 27.7616 79.3835 27.6802 79.0162 27.6075C78.6523 27.5348 78.2252 27.4257 77.6979 27.2803C77.2507 27.1617 76.8156 27.0026 76.3982 26.805C76.006 26.6065 75.6328 26.3735 75.283 26.109C74.917 25.8441 74.6011 25.518 74.3497 25.1455C74.0946 24.7486 73.8993 24.3173 73.7697 23.8652C73.6116 23.3269 73.5343 22.7687 73.5403 22.2083C73.5218 21.3831 73.7016 20.5653 74.0649 19.8216C74.4282 19.0778 74.9649 18.4292 75.631 17.9285C77.0248 16.8308 78.8501 16.2811 81.1069 16.2794C83.3637 16.2777 85.1829 16.8438 86.5644 17.9778C87.2328 18.5202 87.7669 19.2056 88.126 19.9819C88.4851 20.7581 88.6597 21.6049 88.6366 22.4577H83.8092C83.8247 22.1445 83.7641 21.8323 83.6325 21.5468C83.5009 21.2613 83.3021 21.0109 83.0526 20.8163C82.5587 20.4493 81.8645 20.2658 80.9698 20.2658C80.3177 20.2287 79.6708 20.3989 79.1243 20.7514C78.9107 20.895 78.7372 21.0891 78.6197 21.316C78.5023 21.5429 78.4446 21.7953 78.452 22.0499C78.4491 22.2374 78.4869 22.4233 78.5627 22.5953C78.6478 22.7696 78.7837 22.9152 78.9529 23.0134C79.1401 23.1302 79.3167 23.2315 79.4802 23.3146C79.7201 23.4263 79.971 23.5133 80.229 23.5743C80.5638 23.6574 80.8353 23.7198 81.0436 23.7587L82.0059 23.9327C83.8303 24.2582 85.1486 24.5932 85.9606 24.9378C87.9871 25.8311 89.0013 27.3945 89.0031 29.6279C89.0319 30.4972 88.8513 31.3608 88.476 32.1481C88.1007 32.9353 87.5413 33.6238 86.8438 34.1571C85.399 35.2773 83.4867 35.8382 81.1069 35.8399Z" fill="#021456"/>
<path d="M100.88 16.2768C102.644 16.2526 104.384 16.689 105.921 17.5415C107.405 18.366 108.626 19.5808 109.449 21.0501C110.286 22.5914 110.725 24.3127 110.725 26.061C110.725 27.8093 110.286 29.5305 109.449 31.0719C108.627 32.5461 107.406 33.7663 105.921 34.596C104.385 35.4534 102.645 35.8926 100.88 35.8685C99.0358 35.8868 97.2308 35.3425 95.7128 34.3103V41.9948H90.6298V16.804H93.978L94.8454 18.4946C96.5 17.0303 98.6563 16.2378 100.88 16.2768ZM96.7912 29.6825C97.7783 30.6101 99.0902 31.1277 100.454 31.1277C101.819 31.1277 103.131 30.6101 104.118 29.6825C105.054 28.6963 105.574 27.3967 105.574 26.0467C105.574 24.6967 105.054 23.3971 104.118 22.4109C103.13 21.4839 101.819 20.9667 100.454 20.9667C99.0903 20.9667 97.7786 21.4839 96.7912 22.4109C95.8578 23.3942 95.3385 24.6901 95.3385 26.0363C95.3385 27.3825 95.8578 28.6784 96.7912 29.6617V29.6825Z" fill="#021456"/>
<path d="M112.272 35.3205V16.7962H117.355V35.3179L112.272 35.3205Z" fill="#021456"/>
<path d="M129.734 16.6975H131.4V21.4214H129.206C127.779 21.4214 126.756 21.753 126.137 22.4161C125.519 23.0792 125.21 24.1708 125.212 25.6909V35.3205H120.129V16.7962H123.377L124.276 19.0737C125.568 17.4896 127.387 16.6975 129.734 16.6975Z" fill="#021456"/>
<path d="M151.136 25.9921C151.136 26.4846 151.103 26.9765 151.036 27.4646H136.799C137.015 28.7267 137.529 29.6954 138.339 30.3707C139.203 31.0645 140.294 31.4246 141.408 31.3835C142.229 31.3961 143.04 31.2002 143.762 30.8147C144.443 30.4511 145.006 29.9056 145.386 29.241H150.722C150.099 31.1827 148.855 32.874 147.177 34.0631C145.498 35.2522 143.475 35.8754 141.408 35.8399C139.663 35.8604 137.946 35.4172 136.435 34.557C134.961 33.7193 133.746 32.5007 132.924 31.0329C132.088 29.501 131.651 27.7893 131.651 26.0505C131.651 24.3118 132.088 22.6001 132.924 21.0682C133.74 19.601 134.951 18.3843 136.425 17.5519C137.964 16.7102 139.697 16.272 141.458 16.2792C143.219 16.2865 144.948 16.739 146.48 17.5934C147.939 18.4316 149.133 19.6515 149.931 21.1176C150.743 22.6168 151.157 24.2933 151.136 25.9921ZM141.413 20.5384C140.381 20.5098 139.37 20.8357 138.555 21.4604C137.744 22.1215 137.176 23.028 136.942 24.0392H146.053C145.772 23.0156 145.168 22.1064 144.329 21.4422C143.487 20.8305 142.461 20.5158 141.416 20.5488L141.413 20.5384Z" fill="#021456"/>
<path d="M157.237 16.7183H158.555V22.6913H157.237V20.2216H154.954V22.6913H153.636V16.7183H154.954V19.0218H157.237V16.7183Z" fill="#021456"/>
<path d="M163.828 22.1512C163.333 22.5831 162.695 22.8216 162.034 22.8216C161.373 22.8216 160.735 22.5831 160.24 22.1512C160.005 21.9325 159.819 21.667 159.696 21.3724C159.573 21.0778 159.515 20.7608 159.525 20.4424V16.7183H160.844V20.3826C160.836 20.5451 160.861 20.7074 160.918 20.8599C160.975 21.0125 161.063 21.1523 161.176 21.2708C161.288 21.3821 161.423 21.4691 161.571 21.5263C161.72 21.5835 161.879 21.6097 162.038 21.6032C162.196 21.6096 162.354 21.5834 162.502 21.5261C162.649 21.4689 162.783 21.3819 162.895 21.2708C163.007 21.1521 163.095 21.0123 163.151 20.8597C163.208 20.7071 163.233 20.5449 163.224 20.3826V16.7183H164.543V20.432C164.554 20.752 164.496 21.0708 164.373 21.3672C164.25 21.6635 164.064 21.9308 163.828 22.1512Z" fill="#021456"/>
<path d="M169.156 19.5412C169.416 19.6706 169.632 19.8708 169.779 20.1177C169.929 20.376 170.005 20.6694 170 20.967C170.002 21.1984 169.953 21.4276 169.856 21.6384C169.759 21.8492 169.617 22.0366 169.438 22.1875C169.07 22.5206 168.586 22.701 168.086 22.6913H165.51V16.7182H168.009C168.484 16.7016 168.947 16.8579 169.312 17.1572C169.478 17.2891 169.612 17.4565 169.704 17.6467C169.795 17.837 169.841 18.0452 169.839 18.2557C169.842 18.5109 169.78 18.7627 169.661 18.9891C169.541 19.2155 169.367 19.4096 169.154 19.5542L169.156 19.5412ZM168.384 18.9153C168.445 18.8554 168.493 18.7837 168.525 18.7045C168.557 18.6254 168.572 18.5407 168.568 18.4556C168.572 18.3706 168.557 18.2857 168.526 18.2065C168.494 18.1273 168.446 18.0556 168.384 17.996C168.318 17.9365 168.24 17.8905 168.156 17.8607C168.072 17.8308 167.983 17.8176 167.893 17.822H166.802V19.0919H167.893C167.983 19.0962 168.073 19.0828 168.157 19.0524C168.241 19.0221 168.318 18.9755 168.384 18.9153ZM167.965 21.5123C168.061 21.5181 168.157 21.5045 168.248 21.4723C168.338 21.4402 168.422 21.3901 168.492 21.3253C168.619 21.196 168.69 21.0233 168.69 20.8436C168.69 20.6638 168.619 20.4911 168.492 20.3618C168.422 20.297 168.338 20.247 168.248 20.2149C168.157 20.1827 168.061 20.1691 167.965 20.1749H166.802V21.5123H167.965Z" fill="#021456"/>
<path d="M49.1005 9H48.7076C47.2122 9 46 10.1941 46 11.6671V11.6697C46 13.1427 47.2122 14.3368 48.7076 14.3368H49.1005C50.5958 14.3368 51.8081 13.1427 51.8081 11.6697V11.6671C51.8081 10.1941 50.5958 9 49.1005 9Z" fill="#021456"/>
<path d="M115.012 9H114.619C113.123 9 111.911 10.1941 111.911 11.6671V11.6697C111.911 13.1427 113.123 14.3368 114.619 14.3368H115.012C116.507 14.3368 117.719 13.1427 117.719 11.6697V11.6671C117.719 10.1941 116.507 9 115.012 9Z" fill="#021456"/>
</g>
<defs>
<clipPath id="clip0_42_2026">
<rect width="36.297" height="48.511" fill="white" transform="translate(0 1)"/>
</clipPath>
<clipPath id="clip1_42_2026">
<rect width="124" height="33" fill="white" transform="translate(46 9)"/>
</clipPath>
</defs>
</svg>
