<svg width="28" height="28" viewBox="0 0 28 28" fill="none" xmlns="http://www.w3.org/2000/svg">
<g clip-path="url(#clip0_42_2006)">
<path d="M7.7161 5C8.52386 5 9.27094 5.06071 9.95355 5.24043C10.6374 5.36064 11.1974 5.60107 11.6942 5.901C12.1923 6.20214 12.5652 6.62228 12.8129 7.16264C13.062 7.70299 13.1871 8.36478 13.1871 9.08485C13.1871 9.92635 13 10.6464 12.5652 11.1868C12.1923 11.7283 11.5703 12.208 10.8245 12.5686C11.8813 12.8698 12.6891 13.4101 13.1871 14.1314C13.6839 14.8515 13.9949 15.7525 13.9949 16.7737C13.9949 17.6152 13.8078 18.3353 13.4968 18.9363C13.1871 19.5374 12.6891 20.0778 12.1291 20.4384C11.5207 20.8249 10.8483 21.1091 10.1406 21.2787C9.39482 21.4596 8.649 21.5798 7.90319 21.5798H-0.428467V5H7.7161ZM7.21805 11.7271C7.90192 11.7271 8.46192 11.5474 8.89677 11.2475C9.33162 10.9476 9.5187 10.406 9.5187 9.74542C9.5187 9.38478 9.4555 9.02535 9.33162 8.78492C9.20773 8.54449 9.02065 8.36357 8.77289 8.18385C8.52386 8.06364 8.27483 7.94342 7.96386 7.88392C7.6529 7.82321 7.34319 7.82321 6.96902 7.82321H3.36382V11.7283H7.21931L7.21805 11.7271ZM7.40513 18.8161C7.77804 18.8161 8.15095 18.7554 8.46192 18.6959C8.77289 18.6352 9.08385 18.5162 9.33162 18.3353C9.58492 18.1595 9.79683 17.9344 9.95355 17.6747C10.0774 17.3748 10.2026 17.0141 10.2026 16.594C10.2026 15.7525 9.95355 15.1514 9.45676 14.7313C8.95871 14.3706 8.27483 14.1909 7.46707 14.1909H3.36382V18.8173L7.40513 18.8161ZM19.4039 18.7554C19.9007 19.2363 20.6465 19.4767 21.6414 19.4767C22.3253 19.4767 22.9472 19.297 23.444 18.997C23.942 18.6364 24.253 18.2758 24.3769 17.9163H27.4234C26.9253 19.3565 26.1795 20.3777 25.1859 21.0395C24.1898 21.6393 23.0091 22 21.5794 22C20.6647 22.0027 19.7576 21.8395 18.9059 21.5191C18.1394 21.243 17.4559 20.7892 16.9162 20.198C16.3389 19.645 15.9121 18.964 15.6736 18.215C15.3626 17.4343 15.2375 16.594 15.2375 15.6323C15.2375 14.7313 15.3626 13.891 15.6736 13.109C15.9731 12.3566 16.4159 11.6644 16.9794 11.0678C17.5471 10.5078 18.2223 10.0587 18.9678 9.74542C19.798 9.42492 20.6848 9.26164 21.5794 9.26456C22.6362 9.26456 23.5691 9.44549 24.3769 9.86563C25.1859 10.2858 25.8066 10.7666 26.3034 11.4879C26.8014 12.1485 27.1756 12.9293 27.4234 13.7708C27.5472 14.6111 27.6092 15.4526 27.5472 16.413H18.533C18.533 17.3748 18.9059 18.2758 19.4039 18.7566V18.7554ZM23.3201 12.4484C22.8853 12.0283 22.2014 11.7878 21.3924 11.7878C20.8336 11.7878 20.3975 11.9093 20.0246 12.089C19.6517 12.2687 19.4039 12.5091 19.1549 12.7496C18.9257 12.9817 18.7738 13.2743 18.7188 13.5898C18.6568 13.891 18.5949 14.1314 18.5949 14.3706H24.1898C24.0659 13.4696 23.7549 12.8698 23.3201 12.4484ZM17.8491 6.14143H24.8117V7.76371H17.8504V6.14143H17.8491Z" fill="#8452FF"/>
</g>
<defs>
<clipPath id="clip0_42_2006">
<rect width="27.14" height="27.14" fill="white" transform="translate(0.285767 0.00146484)"/>
</clipPath>
</defs>
</svg>
