<svg width="28" height="28" viewBox="0 0 28 28" fill="none" xmlns="http://www.w3.org/2000/svg">
<g clip-path="url(#clip0_42_2008)">
<path d="M13.9958 0.00146484C11.3119 0.00146484 8.68827 0.797331 6.4567 2.28842C4.22512 3.77951 2.48582 5.89886 1.45874 8.37845C0.431661 10.858 0.16293 13.5865 0.686531 16.2188C1.21013 18.8512 2.50255 21.2691 4.40035 23.1669C6.29815 25.0647 8.71609 26.3571 11.3484 26.8807C13.9807 27.4043 16.7092 27.1356 19.1888 26.1085C21.6684 25.0814 23.7877 23.3421 25.2788 21.1105C26.7699 18.879 27.5658 16.2554 27.5658 13.5715C27.562 9.97364 26.1311 6.52427 23.587 3.98022C21.043 1.43618 17.5936 0.00526421 13.9958 0.00146484ZM25.4324 12.5511C25.1001 12.5354 24.7674 12.5276 24.4342 12.5276C22.4979 12.5282 20.5702 12.7844 18.7009 13.2896C18.2452 11.9373 17.6574 10.6331 16.946 9.39608C18.8014 8.27723 20.481 6.88998 21.9303 5.27941C23.9413 7.19808 25.186 9.78257 25.4324 12.5511ZM20.2954 3.97591C18.9916 5.40856 17.4845 6.64214 15.8225 7.6372C14.4305 5.67792 12.728 3.95906 10.782 2.54845C12.3784 2.08244 14.0569 1.96873 15.7015 2.2152C17.3461 2.46166 18.9175 3.06241 20.3071 3.97591H20.2954ZM8.46992 3.50879C10.6028 4.85195 12.4622 6.58654 13.9501 8.62102C11.346 9.82125 8.5124 10.4418 5.64502 10.4399C4.76005 10.4395 3.87608 10.3806 2.99887 10.2638C3.87173 7.38473 5.83501 4.9607 8.46992 3.50879ZM2.51348 13.5715C2.51343 13.1512 2.53651 12.7313 2.58263 12.3136C3.59721 12.4561 4.62049 12.5276 5.64502 12.5276C8.91948 12.5307 12.153 11.7995 15.1075 10.3877C15.7584 11.5118 16.2964 12.6976 16.7137 13.9277C15.6049 14.3442 14.5318 14.8504 13.5052 15.4413C10.6412 17.0958 8.18556 19.3727 6.3196 22.1036C5.12135 21.0287 4.16309 19.7133 3.50728 18.2431C2.85148 16.773 2.51285 15.1812 2.51348 13.5715ZM7.99367 23.3575C9.68778 20.8519 11.9294 18.7642 14.549 17.2523C15.4248 16.7469 16.3388 16.3106 17.2826 15.9475C17.6056 17.3808 17.7688 18.8455 17.7693 20.3147C17.77 21.7431 17.6173 23.1674 17.3139 24.5632C15.7633 25.0316 14.1311 25.1663 12.5247 24.9585C10.9182 24.7507 9.37403 24.2051 7.99367 23.3575ZM19.6143 23.5832C19.7754 22.5034 19.8565 21.4131 19.857 20.3212C19.8568 18.6313 19.6619 16.947 19.2763 15.3016C20.9581 14.8478 22.6923 14.617 24.4342 14.6153C24.7648 14.6153 25.0958 14.6236 25.4272 14.6401C25.2524 16.4892 24.6324 18.2685 23.6201 19.8257C22.6078 21.3829 21.2333 22.6717 19.6143 23.5819V23.5832Z" fill="#8452FF"/>
</g>
<defs>
<clipPath id="clip0_42_2008">
<rect width="27.14" height="27.14" fill="white" transform="translate(0.425781 0.00146484)"/>
</clipPath>
</defs>
</svg>
