<svg width="38" height="38" viewBox="0 0 38 38" fill="none" xmlns="http://www.w3.org/2000/svg">
<g clip-path="url(#clip0_42_2146)">
<path d="M19 38C29.4934 38 38 29.4934 38 19C38 8.50659 29.4934 0 19 0C8.50659 0 0 8.50659 0 19C0 29.4934 8.50659 38 19 38Z" fill="#E6DEFA"/>
<path d="M26.7735 10.5393H11.2224C10.2827 10.5393 9.521 11.301 9.521 12.2407V25.7552C9.521 26.6949 10.2827 27.4566 11.2224 27.4566H26.7735C27.7132 27.4566 28.4749 26.6949 28.4749 25.7552V12.2407C28.4749 11.301 27.7132 10.5393 26.7735 10.5393Z" stroke="#8452FF" stroke-width="1.5" stroke-miterlimit="10"/>
<path d="M9.52515 15.8613L18.3253 19.6873C18.5345 19.7772 18.7597 19.8236 18.9874 19.8236C19.2151 19.8236 19.4404 19.7772 19.6496 19.6873L28.4497 15.8613" stroke="#8452FF" stroke-width="1.5" stroke-miterlimit="10"/>
</g>
<defs>
<clipPath id="clip0_42_2146">
<rect width="38" height="38" fill="white"/>
</clipPath>
</defs>
</svg>
