<svg width="44" height="44" viewBox="0 0 44 44" fill="none" xmlns="http://www.w3.org/2000/svg">
<g clip-path="url(#clip0_42_3526)">
<path d="M12.7657 -0.000137329H31.0057C37.9542 -0.000137329 43.6 5.64558 43.6 12.5941V30.8342C43.6 34.1744 42.2731 37.3778 39.9112 39.7397C37.5493 42.1015 34.3459 43.4284 31.0057 43.4284H12.7657C5.8171 43.4284 0.171387 37.7827 0.171387 30.8342V12.5941C0.171387 9.25394 1.49828 6.05053 3.86017 3.68864C6.22205 1.32676 9.42546 -0.000137329 12.7657 -0.000137329ZM12.3314 4.34272C10.2582 4.34272 8.26983 5.16631 6.80383 6.63231C5.33783 8.09831 4.51424 10.0866 4.51424 12.1599V31.2684C4.51424 35.5896 8.01024 39.0856 12.3314 39.0856H31.44C33.5132 39.0856 35.5015 38.262 36.9675 36.796C38.4335 35.33 39.2571 33.3417 39.2571 31.2684V12.1599C39.2571 7.83872 35.7611 4.34272 31.44 4.34272H12.3314ZM33.2857 7.59986C34.0055 7.59986 34.6959 7.88583 35.205 8.39486C35.714 8.90389 36 9.59428 36 10.3141C36 11.034 35.714 11.7244 35.205 12.2334C34.6959 12.7425 34.0055 13.0284 33.2857 13.0284C32.5658 13.0284 31.8754 12.7425 31.3664 12.2334C30.8574 11.7244 30.5714 11.034 30.5714 10.3141C30.5714 9.59428 30.8574 8.90389 31.3664 8.39486C31.8754 7.88583 32.5658 7.59986 33.2857 7.59986ZM21.8857 10.857C24.7652 10.857 27.5267 12.0009 29.5628 14.037C31.5989 16.0731 32.7428 18.8347 32.7428 21.7141C32.7428 24.5936 31.5989 27.3552 29.5628 29.3913C27.5267 31.4274 24.7652 32.5713 21.8857 32.5713C19.0062 32.5713 16.2446 31.4274 14.2085 29.3913C12.1724 27.3552 11.0285 24.5936 11.0285 21.7141C11.0285 18.8347 12.1724 16.0731 14.2085 14.037C16.2446 12.0009 19.0062 10.857 21.8857 10.857ZM21.8857 15.1999C20.158 15.1999 18.501 15.8862 17.2794 17.1079C16.0577 18.3295 15.3714 19.9865 15.3714 21.7141C15.3714 23.4418 16.0577 25.0988 17.2794 26.3204C18.501 27.5421 20.158 28.2284 21.8857 28.2284C23.6134 28.2284 25.2703 27.5421 26.492 26.3204C27.7136 25.0988 28.4 23.4418 28.4 21.7141C28.4 19.9865 27.7136 18.3295 26.492 17.1079C25.2703 15.8862 23.6134 15.1999 21.8857 15.1999Z" fill="white"/>
</g>
<defs>
<clipPath id="clip0_42_3526">
<rect width="43.4286" height="43.4286" fill="white" transform="translate(0.171387 -0.000137329)"/>
</clipPath>
</defs>
</svg>
