<svg width="25" height="24" viewBox="0 0 25 24" fill="none" xmlns="http://www.w3.org/2000/svg">
<g clip-path="url(#clip0_42_2057)">
<path d="M7.15995 0H17.24C21.08 0 24.2 3.12 24.2 6.96V17.04C24.2 18.8859 23.4667 20.6562 22.1614 21.9615C20.8562 23.2667 19.0859 24 17.24 24H7.15995C3.31995 24 0.199951 20.88 0.199951 17.04V6.96C0.199951 5.11409 0.933235 3.34379 2.23849 2.03854C3.54374 0.733284 5.31404 0 7.15995 0ZM6.91995 2.4C5.77422 2.4 4.67541 2.85514 3.86525 3.6653C3.05509 4.47546 2.59995 5.57427 2.59995 6.72V17.28C2.59995 19.668 4.53195 21.6 6.91995 21.6H17.48C18.6257 21.6 19.7245 21.1449 20.5347 20.3347C21.3448 19.5245 21.8 18.4257 21.8 17.28V6.72C21.8 4.332 19.868 2.4 17.48 2.4H6.91995ZM18.5 4.2C18.8978 4.2 19.2793 4.35804 19.5606 4.63934C19.8419 4.92064 20 5.30218 20 5.7C20 6.09783 19.8419 6.47936 19.5606 6.76066C19.2793 7.04197 18.8978 7.2 18.5 7.2C18.1021 7.2 17.7206 7.04197 17.4393 6.76066C17.158 6.47936 17 6.09783 17 5.7C17 5.30218 17.158 4.92064 17.4393 4.63934C17.7206 4.35804 18.1021 4.2 18.5 4.2ZM12.2 6C13.7913 6 15.3174 6.63214 16.4426 7.75736C17.5678 8.88258 18.2 10.4087 18.2 12C18.2 13.5913 17.5678 15.1174 16.4426 16.2426C15.3174 17.3679 13.7913 18 12.2 18C10.6087 18 9.08253 17.3679 7.95731 16.2426C6.83209 15.1174 6.19995 13.5913 6.19995 12C6.19995 10.4087 6.83209 8.88258 7.95731 7.75736C9.08253 6.63214 10.6087 6 12.2 6ZM12.2 8.4C11.2452 8.4 10.3295 8.77928 9.65437 9.45442C8.97924 10.1295 8.59995 11.0452 8.59995 12C8.59995 12.9548 8.97924 13.8705 9.65437 14.5456C10.3295 15.2207 11.2452 15.6 12.2 15.6C13.1547 15.6 14.0704 15.2207 14.7455 14.5456C15.4207 13.8705 15.8 12.9548 15.8 12C15.8 11.0452 15.4207 10.1295 14.7455 9.45442C14.0704 8.77928 13.1547 8.4 12.2 8.4Z" fill="#8452FF"/>
</g>
<defs>
<clipPath id="clip0_42_2057">
<rect width="24" height="24" fill="white" transform="translate(0.199951)"/>
</clipPath>
</defs>
</svg>
