<svg width="28" height="28" viewBox="0 0 28 28" fill="none" xmlns="http://www.w3.org/2000/svg">
<g clip-path="url(#clip0_42_2010)">
<path d="M24.2539 1C25.0201 1 25.7549 1.30436 26.2967 1.84614C26.8385 2.38791 27.1428 3.12271 27.1428 3.88889V24.1111C27.1428 24.8773 26.8385 25.6121 26.2967 26.1539C25.7549 26.6956 25.0201 27 24.2539 27H4.03171C3.26553 27 2.53073 26.6956 1.98896 26.1539C1.44719 25.6121 1.14282 24.8773 1.14282 24.1111V3.88889C1.14282 3.12271 1.44719 2.38791 1.98896 1.84614C2.53073 1.30436 3.26553 1 4.03171 1H24.2539ZM23.5317 23.3889V15.7333C23.5317 14.4845 23.0356 13.2867 22.1525 12.4036C21.2694 11.5206 20.0717 11.0244 18.8228 11.0244C17.595 11.0244 16.165 11.7756 15.4717 12.9022V11.2989H11.4417V23.3889H15.4717V16.2678C15.4717 15.1556 16.3673 14.2456 17.4795 14.2456C18.0158 14.2456 18.5302 14.4586 18.9094 14.8379C19.2887 15.2171 19.5017 15.7315 19.5017 16.2678V23.3889H23.5317ZM6.74727 9.03111C7.39086 9.03111 8.00809 8.77545 8.46318 8.32036C8.91827 7.86527 9.17393 7.24804 9.17393 6.60444C9.17393 5.26111 8.0906 4.16333 6.74727 4.16333C6.09984 4.16333 5.47894 4.42052 5.02114 4.87832C4.56334 5.33612 4.30616 5.95702 4.30616 6.60444C4.30616 7.94778 5.40393 9.03111 6.74727 9.03111ZM8.75504 23.3889V11.2989H4.75393V23.3889H8.75504Z" fill="#8452FF"/>
</g>
<defs>
<clipPath id="clip0_42_2010">
<rect width="27.14" height="27.14" fill="white" transform="translate(0.565674 0.00146484)"/>
</clipPath>
</defs>
</svg>
