<svg width="38" height="38" viewBox="0 0 38 38" fill="none" xmlns="http://www.w3.org/2000/svg">
<g clip-path="url(#clip0_42_2143)">
<path d="M19 38C29.4934 38 38 29.4934 38 19C38 8.50659 29.4934 0 19 0C8.50659 0 0 8.50659 0 19C0 29.4934 8.50659 38 19 38Z" fill="#E6DEFA"/>
<path d="M22.319 29.3718C22.0341 29.3257 21.7491 29.2838 21.4809 29.2294C20.3337 28.9993 19.2386 28.5604 18.25 27.9345C16.7065 26.9598 15.3095 25.7703 14.1013 24.4018C12.8269 23.0403 11.7184 21.5323 10.7992 19.9096C10.1088 18.7153 9.64431 17.4042 9.42886 16.0417C9.17368 14.5311 9.43343 12.9785 10.1664 11.6332C10.5645 10.9096 11.1048 10.2739 11.7546 9.76421C12.0647 9.51697 12.3539 9.24039 12.6682 8.99315C12.8022 8.86691 12.9605 8.76925 13.1335 8.70611C13.3064 8.64297 13.4904 8.61567 13.6742 8.62586C13.858 8.63605 14.0379 8.68352 14.2028 8.7654C14.3678 8.84727 14.5143 8.96183 14.6336 9.10211C14.9713 9.44924 15.2784 9.825 15.5513 10.2252C16.0954 10.9493 16.5408 11.7427 16.8755 12.5845C17.0489 12.9812 17.09 13.4232 16.9926 13.8451C16.8953 14.267 16.6647 14.6464 16.3349 14.927C15.9734 15.2616 15.5928 15.575 15.1951 15.8657C14.357 16.4607 14.2103 17.1941 14.5371 18.137C14.8633 18.9823 15.331 19.7659 15.92 20.4543C16.6345 21.3964 17.4511 22.2565 18.3548 23.019C18.8428 23.4599 19.4267 23.7812 20.0603 23.9576C20.3225 24.0254 20.598 24.0223 20.8587 23.9487C21.1193 23.875 21.3558 23.7335 21.5438 23.5386C21.9628 23.1405 22.3819 22.734 22.8261 22.361C23.1416 22.0797 23.5391 21.9071 23.96 21.8686C24.381 21.8302 24.8032 21.9279 25.1644 22.1473C25.4376 22.2796 25.6973 22.4382 25.9397 22.6209C26.8235 23.2452 27.621 23.9835 28.3115 24.8167C28.4429 24.9579 28.5434 25.1249 28.6065 25.3072C28.6695 25.4895 28.6937 25.683 28.6775 25.8752C28.6613 26.0673 28.6051 26.254 28.5125 26.4232C28.4199 26.5924 28.2929 26.7403 28.1397 26.8575C27.5249 27.4837 26.8418 28.0389 26.1031 28.5128C25.3225 28.9654 24.4562 29.2508 23.5594 29.3509C23.5013 29.359 23.4438 29.3716 23.3876 29.3886L22.319 29.3718Z" stroke="#8452FF" stroke-width="1.5" stroke-miterlimit="10"/>
</g>
<defs>
<clipPath id="clip0_42_2143">
<rect width="38" height="38" fill="white"/>
</clipPath>
</defs>
</svg>
